<?xml version="1.0" encoding="UTF-8" standalone="no"?>
<!DOCTYPE svg PUBLIC "-//W3C//DTD SVG 1.1//EN"
 "http://www.w3.org/Graphics/SVG/1.1/DTD/svg11.dtd">
<!-- Generated by graphviz version 9.0.0 (20230911.1827)
 -->
<!-- Title: iop/cdvd/poffsim Pages: 1 -->
<svg width="260pt" height="142pt"
 viewBox="0.00 0.00 259.75 141.75" xmlns="http://www.w3.org/2000/svg" xmlns:xlink="http://www.w3.org/1999/xlink">
<g id="graph0" class="graph" transform="scale(1 1) rotate(0) translate(4 137.75)">
<title>iop/cdvd/poffsim</title>
<g id="clust1" class="cluster">
<title>clusterdir_a12d8da7b0731a57c6a388326ad5e612</title>
<g id="a_clust1"><a xlink:href="dir_a12d8da7b0731a57c6a388326ad5e612.html" target="_top" xlink:title="cdvd">
<polygon fill="#deebf9" stroke="#7f7f7f" stroke-dasharray="5,2" points="8,-8 8,-125.75 136,-125.75 136,-8 8,-8"/>
<text text-anchor="middle" x="72" y="-112.25" font-family="Helvetica,sans-Serif" font-size="10.00">cdvd</text>
</a>
</g>
</g>
<g id="clust2" class="cluster">
<title>clusterdir_9cb22f3580e9b820d735857d49891159</title>
<g id="a_clust2"><a xlink:href="dir_9cb22f3580e9b820d735857d49891159.html" target="_top">
<polygon fill="#deebf9" stroke="#404040" stroke-width="2" points="16,-63.25 16,-98.5 128,-98.5 128,-63.25 16,-63.25"/>
</a>
</g>
</g>
<!-- dir_f449e64e40a305c379232bc791e77932 -->
<g id="node1" class="node">
<title>dir_f449e64e40a305c379232bc791e77932</title>
<g id="a_node1"><a xlink:href="dir_f449e64e40a305c379232bc791e77932.html" target="_top" xlink:title="cdvdman">
<polygon fill="#60a2e3" stroke="red" points="71.88,-35.25 16.12,-35.25 16.12,-16 71.88,-16 71.88,-35.25"/>
<text text-anchor="middle" x="44" y="-21.75" font-family="Helvetica,sans-Serif" font-size="10.00">cdvdman</text>
</a>
</g>
</g>
<!-- dir_9cb22f3580e9b820d735857d49891159 -->
<g id="node2" class="node">
<title>dir_9cb22f3580e9b820d735857d49891159</title>
<text text-anchor="middle" x="96" y="-77" font-family="Helvetica,sans-Serif" font-size="10.00">poffsim</text>
</g>
<!-- dir_73fb5736705d41bde0e686b372d7e351 -->
<g id="node3" class="node">
<title>dir_73fb5736705d41bde0e686b372d7e351</title>
<g id="a_node3"><a xlink:href="dir_73fb5736705d41bde0e686b372d7e351.html" target="_top" xlink:title="src">
<polygon fill="#60a2e3" stroke="#404040" points="53.75,-90.5 24.25,-90.5 24.25,-71.25 53.75,-71.25 53.75,-90.5"/>
<text text-anchor="middle" x="39" y="-77" font-family="Helvetica,sans-Serif" font-size="10.00">src</text>
</a>
</g>
</g>
<!-- dir_73fb5736705d41bde0e686b372d7e351&#45;&gt;dir_f449e64e40a305c379232bc791e77932 -->
<g id="edge3" class="edge">
<title>dir_73fb5736705d41bde0e686b372d7e351&#45;&gt;dir_f449e64e40a305c379232bc791e77932</title>
<g id="a_edge3"><a xlink:href="dir_000396_000043.html" target="_top">
<path fill="none" stroke="#63b8ff" d="M39.83,-71.08C40.44,-64.49 41.32,-55.21 42.1,-46.82"/>
<polygon fill="#63b8ff" stroke="#63b8ff" points="45.56,-47.4 43.01,-37.12 38.6,-46.75 45.56,-47.4"/>
</a>
</g>
<g id="a_edge3&#45;headlabel"><a xlink:href="dir_000396_000043.html" target="_top" xlink:title="1">
<text text-anchor="middle" x="48.2" y="-45.86" font-family="Helvetica,sans-Serif" font-size="10.00" fill="#63b8ff">1</text>
</a>
</g>
</g>
<!-- dir_9be0baa3d4a3e9f480a9ee70594037fa -->
<g id="node4" class="node">
<title>dir_9be0baa3d4a3e9f480a9ee70594037fa</title>
<g id="a_node4"><a xlink:href="dir_9be0baa3d4a3e9f480a9ee70594037fa.html" target="_top" xlink:title="kernel">
<polygon fill="#deebf9" stroke="red" stroke-dasharray="5,2" points="186.12,-35.25 143.88,-35.25 143.88,-16 186.12,-16 186.12,-35.25"/>
<text text-anchor="middle" x="165" y="-21.75" font-family="Helvetica,sans-Serif" font-size="10.00">kernel</text>
</a>
</g>
</g>
<!-- dir_73fb5736705d41bde0e686b372d7e351&#45;&gt;dir_9be0baa3d4a3e9f480a9ee70594037fa -->
<g id="edge2" class="edge">
<title>dir_73fb5736705d41bde0e686b372d7e351&#45;&gt;dir_9be0baa3d4a3e9f480a9ee70594037fa</title>
<g id="a_edge2"><a xlink:href="dir_000396_000242.html" target="_top">
<path fill="none" stroke="#63b8ff" d="M50.82,-70.78C54.59,-68.13 58.85,-65.38 63,-63.25 66.29,-61.56 103.97,-48.14 132.59,-38.04"/>
<polygon fill="#63b8ff" stroke="#63b8ff" points="133.71,-41.35 141.97,-34.72 131.38,-34.75 133.71,-41.35"/>
</a>
</g>
<g id="a_edge2&#45;headlabel"><a xlink:href="dir_000396_000242.html" target="_top" xlink:title="1">
<text text-anchor="middle" x="132.69" y="-40.85" font-family="Helvetica,sans-Serif" font-size="10.00" fill="#63b8ff">1</text>
</a>
</g>
</g>
<!-- dir_40ac35421bc63b72c26b6c69b1517fd6 -->
<g id="node5" class="node">
<title>dir_40ac35421bc63b72c26b6c69b1517fd6</title>
<g id="a_node5"><a xlink:href="dir_40ac35421bc63b72c26b6c69b1517fd6.html" target="_top" xlink:title="system">
<polygon fill="#deebf9" stroke="red" stroke-dasharray="5,2" points="251.75,-35.25 204.25,-35.25 204.25,-16 251.75,-16 251.75,-35.25"/>
<text text-anchor="middle" x="228" y="-21.75" font-family="Helvetica,sans-Serif" font-size="10.00">system</text>
</a>
</g>
</g>
<!-- dir_73fb5736705d41bde0e686b372d7e351&#45;&gt;dir_40ac35421bc63b72c26b6c69b1517fd6 -->
<g id="edge1" class="edge">
<title>dir_73fb5736705d41bde0e686b372d7e351&#45;&gt;dir_40ac35421bc63b72c26b6c69b1517fd6</title>
<g id="a_edge1"><a xlink:href="dir_000396_000523.html" target="_top">
<path fill="none" stroke="#63b8ff" d="M50.17,-70.77C54.04,-68 58.53,-65.18 63,-63.25 114.94,-40.83 134.42,-48.08 192.91,-35.55"/>
<polygon fill="#63b8ff" stroke="#63b8ff" points="193.42,-39.02 202.41,-33.4 191.88,-32.19 193.42,-39.02"/>
</a>
</g>
<g id="a_edge1&#45;headlabel"><a xlink:href="dir_000396_000523.html" target="_top" xlink:title="4">
<text text-anchor="middle" x="192.02" y="-38.37" font-family="Helvetica,sans-Serif" font-size="10.00" fill="#63b8ff">4</text>
</a>
</g>
</g>
</g>
</svg>
