<?xml version="1.0" encoding="UTF-8" standalone="no"?>
<!DOCTYPE svg PUBLIC "-//W3C//DTD SVG 1.1//EN"
 "http://www.w3.org/Graphics/SVG/1.1/DTD/svg11.dtd">
<!-- Generated by graphviz version 9.0.0 (20230911.1827)
 -->
<!-- Title: iop/system/sio2man Pages: 1 -->
<svg width="534pt" height="182pt"
 viewBox="0.00 0.00 533.75 181.58" xmlns="http://www.w3.org/2000/svg" xmlns:xlink="http://www.w3.org/1999/xlink">
<g id="graph0" class="graph" transform="scale(1 1) rotate(0) translate(4 177.58)">
<title>iop/system/sio2man</title>
<g id="clust1" class="cluster">
<title>clusterdir_40ac35421bc63b72c26b6c69b1517fd6</title>
<g id="a_clust1"><a xlink:href="dir_40ac35421bc63b72c26b6c69b1517fd6.html" target="_top" xlink:title="system">
<polygon fill="#deebf9" stroke="#7f7f7f" stroke-dasharray="5,2" points="8,-39.83 8,-165.58 424,-165.58 424,-39.83 8,-39.83"/>
<text text-anchor="middle" x="216" y="-152.08" font-family="Helvetica,sans-Serif" font-size="10.00">system</text>
</a>
</g>
</g>
<g id="clust2" class="cluster">
<title>clusterdir_1fd4d135da32a6b9ad91946f648cae84</title>
<g id="a_clust2"><a xlink:href="dir_1fd4d135da32a6b9ad91946f648cae84.html" target="_top">
<polygon fill="#deebf9" stroke="#404040" stroke-width="2" points="16,-47.83 16,-138.33 132,-138.33 132,-47.83 16,-47.83"/>
</a>
</g>
</g>
<!-- dir_d7026c86e7f8fc62fc6c0ebacfebf381 -->
<g id="node1" class="node">
<title>dir_d7026c86e7f8fc62fc6c0ebacfebf381</title>
<g id="a_node1"><a xlink:href="dir_d7026c86e7f8fc62fc6c0ebacfebf381.html" target="_top" xlink:title="dmacman">
<polygon fill="#60a2e3" stroke="red" points="198.38,-75.08 139.62,-75.08 139.62,-55.83 198.38,-55.83 198.38,-75.08"/>
<text text-anchor="middle" x="169" y="-61.58" font-family="Helvetica,sans-Serif" font-size="10.00">dmacman</text>
</a>
</g>
</g>
<!-- dir_7422a0894415a12ccd1d562a8ad09f2d -->
<g id="node2" class="node">
<title>dir_7422a0894415a12ccd1d562a8ad09f2d</title>
<g id="a_node2"><a xlink:href="dir_7422a0894415a12ccd1d562a8ad09f2d.html" target="_top" xlink:title="intrman">
<polygon fill="#60a2e3" stroke="red" points="265.12,-75.08 216.88,-75.08 216.88,-55.83 265.12,-55.83 265.12,-75.08"/>
<text text-anchor="middle" x="241" y="-61.58" font-family="Helvetica,sans-Serif" font-size="10.00">intrman</text>
</a>
</g>
</g>
<!-- dir_1d64e5e9f20206636d72b5bbe3d2b274 -->
<g id="node3" class="node">
<title>dir_1d64e5e9f20206636d72b5bbe3d2b274</title>
<g id="a_node3"><a xlink:href="dir_1d64e5e9f20206636d72b5bbe3d2b274.html" target="_top" xlink:title="loadcore">
<polygon fill="#60a2e3" stroke="red" points="336.38,-75.08 283.62,-75.08 283.62,-55.83 336.38,-55.83 336.38,-75.08"/>
<text text-anchor="middle" x="310" y="-61.58" font-family="Helvetica,sans-Serif" font-size="10.00">loadcore</text>
</a>
</g>
</g>
<!-- dir_d3b40e87d731c1e886b7a70e6daaf700 -->
<g id="node4" class="node">
<title>dir_d3b40e87d731c1e886b7a70e6daaf700</title>
<g id="a_node4"><a xlink:href="dir_d3b40e87d731c1e886b7a70e6daaf700.html" target="_top" xlink:title="threadman">
<polygon fill="#60a2e3" stroke="red" points="415.88,-75.08 354.12,-75.08 354.12,-55.83 415.88,-55.83 415.88,-75.08"/>
<text text-anchor="middle" x="385" y="-61.58" font-family="Helvetica,sans-Serif" font-size="10.00">threadman</text>
</a>
</g>
</g>
<!-- dir_1fd4d135da32a6b9ad91946f648cae84 -->
<g id="node5" class="node">
<title>dir_1fd4d135da32a6b9ad91946f648cae84</title>
<text text-anchor="middle" x="98" y="-116.83" font-family="Helvetica,sans-Serif" font-size="10.00">sio2man</text>
</g>
<!-- dir_5bd868b9dc477089b3a8cf6ff153fb80 -->
<g id="node6" class="node">
<title>dir_5bd868b9dc477089b3a8cf6ff153fb80</title>
<g id="a_node6"><a xlink:href="dir_5bd868b9dc477089b3a8cf6ff153fb80.html" target="_top" xlink:title="include">
<polygon fill="#60a2e3" stroke="#404040" points="95.38,-75.08 48.62,-75.08 48.62,-55.83 95.38,-55.83 95.38,-75.08"/>
<text text-anchor="middle" x="72" y="-61.58" font-family="Helvetica,sans-Serif" font-size="10.00">include</text>
</a>
</g>
</g>
<!-- dir_9be0baa3d4a3e9f480a9ee70594037fa -->
<g id="node8" class="node">
<title>dir_9be0baa3d4a3e9f480a9ee70594037fa</title>
<g id="a_node8"><a xlink:href="dir_9be0baa3d4a3e9f480a9ee70594037fa.html" target="_top" xlink:title="kernel">
<polygon fill="#deebf9" stroke="red" stroke-dasharray="5,2" points="279.12,-19.83 236.88,-19.83 236.88,-0.58 279.12,-0.58 279.12,-19.83"/>
<text text-anchor="middle" x="258" y="-6.33" font-family="Helvetica,sans-Serif" font-size="10.00">kernel</text>
</a>
</g>
</g>
<!-- dir_5bd868b9dc477089b3a8cf6ff153fb80&#45;&gt;dir_9be0baa3d4a3e9f480a9ee70594037fa -->
<g id="edge1" class="edge">
<title>dir_5bd868b9dc477089b3a8cf6ff153fb80&#45;&gt;dir_9be0baa3d4a3e9f480a9ee70594037fa</title>
<g id="a_edge1"><a xlink:href="dir_000212_000242.html" target="_top">
<path fill="none" stroke="#63b8ff" d="M79.14,-55.81C84.13,-50.36 91.26,-43.65 99,-39.83 139.43,-19.86 191.78,-13.68 225.14,-11.85"/>
<polygon fill="#63b8ff" stroke="#63b8ff" points="225.16,-15.35 235,-11.42 224.86,-8.36 225.16,-15.35"/>
</a>
</g>
<g id="a_edge1&#45;headlabel"><a xlink:href="dir_000212_000242.html" target="_top" xlink:title="1">
<text text-anchor="middle" x="223.21" y="-14.41" font-family="Helvetica,sans-Serif" font-size="10.00" fill="#63b8ff">1</text>
</a>
</g>
</g>
<!-- dir_1f4d3c5c1e3e1feb3d94e36d4b775ae1 -->
<g id="node7" class="node">
<title>dir_1f4d3c5c1e3e1feb3d94e36d4b775ae1</title>
<g id="a_node7"><a xlink:href="dir_1f4d3c5c1e3e1feb3d94e36d4b775ae1.html" target="_top" xlink:title="src">
<polygon fill="#60a2e3" stroke="#404040" points="53.75,-130.33 24.25,-130.33 24.25,-111.08 53.75,-111.08 53.75,-130.33"/>
<text text-anchor="middle" x="39" y="-116.83" font-family="Helvetica,sans-Serif" font-size="10.00">src</text>
</a>
</g>
</g>
<!-- dir_1f4d3c5c1e3e1feb3d94e36d4b775ae1&#45;&gt;dir_d7026c86e7f8fc62fc6c0ebacfebf381 -->
<g id="edge8" class="edge">
<title>dir_1f4d3c5c1e3e1feb3d94e36d4b775ae1&#45;&gt;dir_d7026c86e7f8fc62fc6c0ebacfebf381</title>
<g id="a_edge8"><a xlink:href="dir_000486_000054.html" target="_top">
<path fill="none" stroke="#63b8ff" d="M54.17,-113.49C74.21,-105.28 110.05,-90.6 136.38,-79.82"/>
<polygon fill="#63b8ff" stroke="#63b8ff" points="137.68,-83.07 145.6,-76.04 135.02,-76.59 137.68,-83.07"/>
</a>
</g>
<g id="a_edge8&#45;headlabel"><a xlink:href="dir_000486_000054.html" target="_top" xlink:title="1">
<text text-anchor="middle" x="136.83" y="-82.61" font-family="Helvetica,sans-Serif" font-size="10.00" fill="#63b8ff">1</text>
</a>
</g>
</g>
<!-- dir_1f4d3c5c1e3e1feb3d94e36d4b775ae1&#45;&gt;dir_7422a0894415a12ccd1d562a8ad09f2d -->
<g id="edge4" class="edge">
<title>dir_1f4d3c5c1e3e1feb3d94e36d4b775ae1&#45;&gt;dir_7422a0894415a12ccd1d562a8ad09f2d</title>
<g id="a_edge4"><a xlink:href="dir_000486_000232.html" target="_top">
<path fill="none" stroke="#63b8ff" d="M54.16,-114C57.08,-112.97 60.12,-111.95 63,-111.08 122.79,-92.91 141.12,-91.32 205.32,-75.47"/>
<polygon fill="#63b8ff" stroke="#63b8ff" points="206.16,-78.87 215.02,-73.05 204.47,-72.07 206.16,-78.87"/>
</a>
</g>
<g id="a_edge4&#45;headlabel"><a xlink:href="dir_000486_000232.html" target="_top" xlink:title="1">
<text text-anchor="middle" x="204.83" y="-78.25" font-family="Helvetica,sans-Serif" font-size="10.00" fill="#63b8ff">1</text>
</a>
</g>
</g>
<!-- dir_1f4d3c5c1e3e1feb3d94e36d4b775ae1&#45;&gt;dir_1d64e5e9f20206636d72b5bbe3d2b274 -->
<g id="edge2" class="edge">
<title>dir_1f4d3c5c1e3e1feb3d94e36d4b775ae1&#45;&gt;dir_1d64e5e9f20206636d72b5bbe3d2b274</title>
<g id="a_edge2"><a xlink:href="dir_000486_000257.html" target="_top">
<path fill="none" stroke="#63b8ff" d="M54.11,-113.82C57.03,-112.81 60.09,-111.84 63,-111.08 151.59,-87.8 178.8,-93.68 272.21,-75.29"/>
<polygon fill="#63b8ff" stroke="#63b8ff" points="272.71,-78.76 281.82,-73.36 271.33,-71.9 272.71,-78.76"/>
</a>
</g>
<g id="a_edge2&#45;headlabel"><a xlink:href="dir_000486_000257.html" target="_top" xlink:title="1">
<text text-anchor="middle" x="271.23" y="-78.08" font-family="Helvetica,sans-Serif" font-size="10.00" fill="#63b8ff">1</text>
</a>
</g>
</g>
<!-- dir_1f4d3c5c1e3e1feb3d94e36d4b775ae1&#45;&gt;dir_d3b40e87d731c1e886b7a70e6daaf700 -->
<g id="edge7" class="edge">
<title>dir_1f4d3c5c1e3e1feb3d94e36d4b775ae1&#45;&gt;dir_d3b40e87d731c1e886b7a70e6daaf700</title>
<g id="a_edge7"><a xlink:href="dir_000486_000532.html" target="_top">
<path fill="none" stroke="#63b8ff" d="M54.08,-113.72C57.01,-112.72 60.07,-111.78 63,-111.08 182.37,-82.37 218.43,-95.61 342.93,-75.27"/>
<polygon fill="#63b8ff" stroke="#63b8ff" points="343.27,-78.76 352.55,-73.65 342.11,-71.86 343.27,-78.76"/>
</a>
</g>
<g id="a_edge7&#45;headlabel"><a xlink:href="dir_000486_000532.html" target="_top" xlink:title="1">
<text text-anchor="middle" x="341.68" y="-78.03" font-family="Helvetica,sans-Serif" font-size="10.00" fill="#63b8ff">1</text>
</a>
</g>
</g>
<!-- dir_1f4d3c5c1e3e1feb3d94e36d4b775ae1&#45;&gt;dir_5bd868b9dc477089b3a8cf6ff153fb80 -->
<g id="edge3" class="edge">
<title>dir_1f4d3c5c1e3e1feb3d94e36d4b775ae1&#45;&gt;dir_5bd868b9dc477089b3a8cf6ff153fb80</title>
<g id="a_edge3"><a xlink:href="dir_000486_000212.html" target="_top">
<path fill="none" stroke="#63b8ff" d="M44.45,-110.91C48.77,-103.94 54.96,-93.95 60.38,-85.2"/>
<polygon fill="#63b8ff" stroke="#63b8ff" points="63.34,-87.07 65.64,-76.73 57.39,-83.38 63.34,-87.07"/>
</a>
</g>
<g id="a_edge3&#45;headlabel"><a xlink:href="dir_000486_000212.html" target="_top" xlink:title="1">
<text text-anchor="middle" x="64.66" y="-86.46" font-family="Helvetica,sans-Serif" font-size="10.00" fill="#63b8ff">1</text>
</a>
</g>
</g>
<!-- dir_1f4d3c5c1e3e1feb3d94e36d4b775ae1&#45;&gt;dir_9be0baa3d4a3e9f480a9ee70594037fa -->
<g id="edge5" class="edge">
<title>dir_1f4d3c5c1e3e1feb3d94e36d4b775ae1&#45;&gt;dir_9be0baa3d4a3e9f480a9ee70594037fa</title>
<g id="a_edge5"><a xlink:href="dir_000486_000242.html" target="_top">
<path fill="none" stroke="#63b8ff" d="M54.07,-113.65C56.99,-112.66 60.06,-111.74 63,-111.08 142.51,-93.16 373.27,-135.47 428,-75.08 438.52,-63.47 438.12,-51.79 428,-39.83 410.78,-19.47 335.19,-13.59 290.81,-11.89"/>
<polygon fill="#63b8ff" stroke="#63b8ff" points="291.09,-8.4 280.98,-11.57 290.86,-15.39 291.09,-8.4"/>
</a>
</g>
<g id="a_edge5&#45;headlabel"><a xlink:href="dir_000486_000242.html" target="_top" xlink:title="1">
<text text-anchor="middle" x="293.26" y="-1.75" font-family="Helvetica,sans-Serif" font-size="10.00" fill="#63b8ff">1</text>
</a>
</g>
</g>
<!-- dir_bdd9a5d540de89e9fe90efdfc6973a4f -->
<g id="node9" class="node">
<title>dir_bdd9a5d540de89e9fe90efdfc6973a4f</title>
<g id="a_node9"><a xlink:href="dir_bdd9a5d540de89e9fe90efdfc6973a4f.html" target="_top" xlink:title="common">
<polygon fill="#deebf9" stroke="red" points="525.75,-75.08 472.25,-75.08 472.25,-55.83 525.75,-55.83 525.75,-75.08"/>
<text text-anchor="middle" x="499" y="-61.58" font-family="Helvetica,sans-Serif" font-size="10.00">common</text>
</a>
</g>
</g>
<!-- dir_1f4d3c5c1e3e1feb3d94e36d4b775ae1&#45;&gt;dir_bdd9a5d540de89e9fe90efdfc6973a4f -->
<g id="edge6" class="edge">
<title>dir_1f4d3c5c1e3e1feb3d94e36d4b775ae1&#45;&gt;dir_bdd9a5d540de89e9fe90efdfc6973a4f</title>
<g id="a_edge6"><a xlink:href="dir_000486_000046.html" target="_top">
<path fill="none" stroke="#63b8ff" d="M54.06,-113.64C56.99,-112.64 60.06,-111.73 63,-111.08 235.11,-72.96 283.67,-101.27 458,-75.08 459.01,-74.93 460.03,-74.77 461.05,-74.6"/>
<polygon fill="#63b8ff" stroke="#63b8ff" points="461.48,-78.08 470.69,-72.84 460.22,-71.19 461.48,-78.08"/>
</a>
</g>
<g id="a_edge6&#45;headlabel"><a xlink:href="dir_000486_000046.html" target="_top" xlink:title="1">
<text text-anchor="middle" x="459.94" y="-77.37" font-family="Helvetica,sans-Serif" font-size="10.00" fill="#63b8ff">1</text>
</a>
</g>
</g>
</g>
</svg>
