<?xml version="1.0" encoding="UTF-8" standalone="no"?>
<!DOCTYPE svg PUBLIC "-//W3C//DTD SVG 1.1//EN"
 "http://www.w3.org/Graphics/SVG/1.1/DTD/svg11.dtd">
<!-- Generated by graphviz version 9.0.0 (20230911.1827)
 -->
<!-- Title: iop/cdvd Pages: 1 -->
<svg width="469pt" height="197pt"
 viewBox="0.00 0.00 468.75 197.00" xmlns="http://www.w3.org/2000/svg" xmlns:xlink="http://www.w3.org/1999/xlink">

<svg id="main" version="1.1" xmlns="http://www.w3.org/2000/svg" xmlns:xlink="http://www.w3.org/1999/xlink" xml:space="preserve" onload="init(evt)">
<style type="text/css"><![CDATA[
.node, .edge {opacity: 0.7;}
.node.selected, .edge.selected {opacity: 1;}
.edge:hover path { stroke: red; }
.edge:hover polygon { stroke: red; fill: red; }
]]></style>
<script type="application/ecmascript" xlink:href="svg.min.js"/>
<svg id="graph" class="graph">
<g id="graph0" class="graph" transform="scale(1 1) rotate(0) translate(4 193)">
<title>iop/cdvd</title>
<g id="clust1" class="cluster">
<title>clusterdir_0981ace215aa2029f526b70c145b9fbe</title>
<g id="a_clust1"><a xlink:href="dir_0981ace215aa2029f526b70c145b9fbe.html" target="_top" xlink:title="iop">
<polygon fill="#deebf9" stroke="#404040" stroke-dasharray="5,2" points="8,-8 8,-181 399,-181 399,-8 8,-8"/>
<text text-anchor="middle" x="203.5" y="-167.5" font-family="Helvetica,sans-Serif" font-size="10.00">iop</text>
</a>
</g>
</g>
<g id="clust2" class="cluster">
<title>clusterdir_a12d8da7b0731a57c6a388326ad5e612</title>
<g id="a_clust2"><a xlink:href="dir_a12d8da7b0731a57c6a388326ad5e612.html" target="_top">
<polygon fill="#deebf9" stroke="#404040" stroke-width="2" points="16,-63.25 16,-153.75 391,-153.75 391,-63.25 16,-63.25"/>
</a>
</g>
</g>
<!-- dir_9be0baa3d4a3e9f480a9ee70594037fa -->
<g id="node1" class="node">
<title>dir_9be0baa3d4a3e9f480a9ee70594037fa</title>
<g id="a_node1"><a xlink:href="dir_9be0baa3d4a3e9f480a9ee70594037fa.html" target="_top" xlink:title="kernel">
<polygon fill="#60a2e3" stroke="red" points="157.12,-35.25 114.88,-35.25 114.88,-16 157.12,-16 157.12,-35.25"/>
<text text-anchor="middle" x="136" y="-21.75" font-family="Helvetica,sans-Serif" font-size="10.00">kernel</text>
</a>
</g>
</g>
<!-- dir_40ac35421bc63b72c26b6c69b1517fd6 -->
<g id="node2" class="node">
<title>dir_40ac35421bc63b72c26b6c69b1517fd6</title>
<g id="a_node2"><a xlink:href="dir_40ac35421bc63b72c26b6c69b1517fd6.html" target="_top" xlink:title="system">
<polygon fill="#60a2e3" stroke="red" points="230.75,-35.25 183.25,-35.25 183.25,-16 230.75,-16 230.75,-35.25"/>
<text text-anchor="middle" x="207" y="-21.75" font-family="Helvetica,sans-Serif" font-size="10.00">system</text>
</a>
</g>
</g>
<!-- dir_a12d8da7b0731a57c6a388326ad5e612 -->
<g id="node3" class="node">
<title>dir_a12d8da7b0731a57c6a388326ad5e612</title>
<text text-anchor="middle" x="364" y="-132.25" font-family="Helvetica,sans-Serif" font-size="10.00">cdvd</text>
</g>
<!-- dir_ae2e5b2d61c32fda6e87ab98b4cec460 -->
<g id="node4" class="node">
<title>dir_ae2e5b2d61c32fda6e87ab98b4cec460</title>
<g id="a_node4"><a xlink:href="dir_ae2e5b2d61c32fda6e87ab98b4cec460.html" target="_top" xlink:title="cdfs">
<polygon fill="#60a2e3" stroke="#404040" points="327.38,-145.75 292.62,-145.75 292.62,-126.5 327.38,-126.5 327.38,-145.75"/>
<text text-anchor="middle" x="310" y="-132.25" font-family="Helvetica,sans-Serif" font-size="10.00">cdfs</text>
</a>
</g>
</g>
<!-- dir_ae2e5b2d61c32fda6e87ab98b4cec460&#45;&gt;dir_9be0baa3d4a3e9f480a9ee70594037fa -->
<g id="edge3" class="edge">
<title>dir_ae2e5b2d61c32fda6e87ab98b4cec460&#45;&gt;dir_9be0baa3d4a3e9f480a9ee70594037fa</title>
<g id="a_edge3"><a xlink:href="dir_000039_000242.html" target="_top">
<path fill="none" stroke="#63b8ff" d="M292.41,-128.44C267.02,-118.64 221.56,-100.45 207,-90.5 192.92,-80.88 192.57,-74.77 180,-63.25 172.48,-56.35 163.92,-49.1 156.35,-42.88"/>
<polygon fill="#63b8ff" stroke="#63b8ff" points="158.61,-40.21 148.64,-36.62 154.2,-45.64 158.61,-40.21"/>
</a>
</g>
<g id="a_edge3&#45;headlabel"><a xlink:href="dir_000039_000242.html" target="_top" xlink:title="1">
<text text-anchor="middle" x="162.02" y="-35.44" font-family="Helvetica,sans-Serif" font-size="10.00" fill="#63b8ff">1</text>
</a>
</g>
</g>
<!-- dir_ae2e5b2d61c32fda6e87ab98b4cec460&#45;&gt;dir_40ac35421bc63b72c26b6c69b1517fd6 -->
<g id="edge1" class="edge">
<title>dir_ae2e5b2d61c32fda6e87ab98b4cec460&#45;&gt;dir_40ac35421bc63b72c26b6c69b1517fd6</title>
<g id="a_edge1"><a xlink:href="dir_000039_000523.html" target="_top">
<path fill="none" stroke="#63b8ff" d="M292.32,-128.25C269.42,-119 231.31,-102.35 222,-90.5 212.19,-78.02 208.62,-60.2 207.4,-46.55"/>
<polygon fill="#63b8ff" stroke="#63b8ff" points="210.91,-46.78 206.9,-36.98 203.92,-47.14 210.91,-46.78"/>
</a>
</g>
<g id="a_edge1&#45;headlabel"><a xlink:href="dir_000039_000523.html" target="_top" xlink:title="14">
<text text-anchor="middle" x="213.85" y="-44.84" font-family="Helvetica,sans-Serif" font-size="10.00" fill="#63b8ff">14</text>
</a>
</g>
</g>
<!-- dir_f449e64e40a305c379232bc791e77932 -->
<g id="node6" class="node">
<title>dir_f449e64e40a305c379232bc791e77932</title>
<g id="a_node6"><a xlink:href="dir_f449e64e40a305c379232bc791e77932.html" target="_top" xlink:title="cdvdman">
<polygon fill="#60a2e3" stroke="#404040" points="286.88,-90.5 231.12,-90.5 231.12,-71.25 286.88,-71.25 286.88,-90.5"/>
<text text-anchor="middle" x="259" y="-77" font-family="Helvetica,sans-Serif" font-size="10.00">cdvdman</text>
</a>
</g>
</g>
<!-- dir_ae2e5b2d61c32fda6e87ab98b4cec460&#45;&gt;dir_f449e64e40a305c379232bc791e77932 -->
<g id="edge4" class="edge">
<title>dir_ae2e5b2d61c32fda6e87ab98b4cec460&#45;&gt;dir_f449e64e40a305c379232bc791e77932</title>
<g id="a_edge4"><a xlink:href="dir_000039_000043.html" target="_top">
<path fill="none" stroke="#63b8ff" d="M301.58,-126.33C294.46,-118.9 284.06,-108.04 275.31,-98.91"/>
<polygon fill="#63b8ff" stroke="#63b8ff" points="278.1,-96.75 268.65,-91.95 273.04,-101.6 278.1,-96.75"/>
</a>
</g>
<g id="a_edge4&#45;headlabel"><a xlink:href="dir_000039_000043.html" target="_top" xlink:title="1">
<text text-anchor="middle" x="281.59" y="-92.42" font-family="Helvetica,sans-Serif" font-size="10.00" fill="#63b8ff">1</text>
</a>
</g>
</g>
<!-- dir_bdd9a5d540de89e9fe90efdfc6973a4f -->
<g id="node10" class="node">
<title>dir_bdd9a5d540de89e9fe90efdfc6973a4f</title>
<g id="a_node10"><a xlink:href="dir_bdd9a5d540de89e9fe90efdfc6973a4f.html" target="_top" xlink:title="common">
<polygon fill="#deebf9" stroke="red" points="460.75,-35.25 407.25,-35.25 407.25,-16 460.75,-16 460.75,-35.25"/>
<text text-anchor="middle" x="434" y="-21.75" font-family="Helvetica,sans-Serif" font-size="10.00">common</text>
</a>
</g>
</g>
<!-- dir_ae2e5b2d61c32fda6e87ab98b4cec460&#45;&gt;dir_bdd9a5d540de89e9fe90efdfc6973a4f -->
<g id="edge2" class="edge">
<title>dir_ae2e5b2d61c32fda6e87ab98b4cec460&#45;&gt;dir_bdd9a5d540de89e9fe90efdfc6973a4f</title>
<g id="a_edge2"><a xlink:href="dir_000039_000046.html" target="_top">
<path fill="none" stroke="#63b8ff" d="M327.73,-129.35C358.39,-119.19 418.68,-98.47 425,-90.5 434.69,-78.27 436.5,-60.43 436.14,-46.71"/>
<polygon fill="#63b8ff" stroke="#63b8ff" points="439.65,-46.79 435.46,-37.06 432.67,-47.28 439.65,-46.79"/>
</a>
</g>
<g id="a_edge2&#45;headlabel"><a xlink:href="dir_000039_000046.html" target="_top" xlink:title="3">
<text text-anchor="middle" x="442.63" y="-44.79" font-family="Helvetica,sans-Serif" font-size="10.00" fill="#63b8ff">3</text>
</a>
</g>
</g>
<!-- dir_1f6440c08895654e298b91d0ddcbd2c2 -->
<g id="node5" class="node">
<title>dir_1f6440c08895654e298b91d0ddcbd2c2</title>
<g id="a_node5"><a xlink:href="dir_1f6440c08895654e298b91d0ddcbd2c2.html" target="_top" xlink:title="cdvdfsv">
<polygon fill="#60a2e3" stroke="#404040" points="137.25,-145.75 86.75,-145.75 86.75,-126.5 137.25,-126.5 137.25,-145.75"/>
<text text-anchor="middle" x="112" y="-132.25" font-family="Helvetica,sans-Serif" font-size="10.00">cdvdfsv</text>
</a>
</g>
</g>
<!-- dir_1f6440c08895654e298b91d0ddcbd2c2&#45;&gt;dir_9be0baa3d4a3e9f480a9ee70594037fa -->
<g id="edge5" class="edge">
<title>dir_1f6440c08895654e298b91d0ddcbd2c2&#45;&gt;dir_9be0baa3d4a3e9f480a9ee70594037fa</title>
<g id="a_edge5"><a xlink:href="dir_000042_000242.html" target="_top">
<path fill="none" stroke="#63b8ff" d="M109.24,-126.43C105.33,-112.61 99.44,-84.99 107,-63.25 109.42,-56.28 113.79,-49.64 118.41,-43.98"/>
<polygon fill="#63b8ff" stroke="#63b8ff" points="120.98,-46.35 125.1,-36.59 115.79,-41.65 120.98,-46.35"/>
</a>
</g>
<g id="a_edge5&#45;headlabel"><a xlink:href="dir_000042_000242.html" target="_top" xlink:title="3">
<text text-anchor="middle" x="121.68" y="-45.93" font-family="Helvetica,sans-Serif" font-size="10.00" fill="#63b8ff">3</text>
</a>
</g>
</g>
<!-- dir_1f6440c08895654e298b91d0ddcbd2c2&#45;&gt;dir_40ac35421bc63b72c26b6c69b1517fd6 -->
<g id="edge8" class="edge">
<title>dir_1f6440c08895654e298b91d0ddcbd2c2&#45;&gt;dir_40ac35421bc63b72c26b6c69b1517fd6</title>
<g id="a_edge8"><a xlink:href="dir_000042_000523.html" target="_top">
<path fill="none" stroke="#63b8ff" d="M119.77,-126.25C135.43,-108.36 171.02,-67.72 191.57,-44.25"/>
<polygon fill="#63b8ff" stroke="#63b8ff" points="194.17,-46.59 198.12,-36.77 188.9,-41.98 194.17,-46.59"/>
</a>
</g>
<g id="a_edge8&#45;headlabel"><a xlink:href="dir_000042_000523.html" target="_top" xlink:title="10">
<text text-anchor="middle" x="194.93" y="-46.16" font-family="Helvetica,sans-Serif" font-size="10.00" fill="#63b8ff">10</text>
</a>
</g>
</g>
<!-- dir_1f6440c08895654e298b91d0ddcbd2c2&#45;&gt;dir_f449e64e40a305c379232bc791e77932 -->
<g id="edge7" class="edge">
<title>dir_1f6440c08895654e298b91d0ddcbd2c2&#45;&gt;dir_f449e64e40a305c379232bc791e77932</title>
<g id="a_edge7"><a xlink:href="dir_000042_000043.html" target="_top">
<path fill="none" stroke="#63b8ff" d="M136.94,-126.09C160.69,-117.49 196.71,-104.44 223.46,-94.75"/>
<polygon fill="#63b8ff" stroke="#63b8ff" points="224.31,-98.16 232.52,-91.47 221.92,-91.58 224.31,-98.16"/>
</a>
</g>
<g id="a_edge7&#45;headlabel"><a xlink:href="dir_000042_000043.html" target="_top" xlink:title="1">
<text text-anchor="middle" x="223.32" y="-97.67" font-family="Helvetica,sans-Serif" font-size="10.00" fill="#63b8ff">1</text>
</a>
</g>
</g>
<!-- dir_1f6440c08895654e298b91d0ddcbd2c2&#45;&gt;dir_bdd9a5d540de89e9fe90efdfc6973a4f -->
<g id="edge6" class="edge">
<title>dir_1f6440c08895654e298b91d0ddcbd2c2&#45;&gt;dir_bdd9a5d540de89e9fe90efdfc6973a4f</title>
<g id="a_edge6"><a xlink:href="dir_000042_000046.html" target="_top">
<path fill="none" stroke="#63b8ff" d="M137.57,-128.43C140.41,-127.75 143.26,-127.09 146,-126.5 235.58,-107.22 264.96,-127.02 349,-90.5 352.61,-88.93 389.12,-61.12 413.1,-42.71"/>
<polygon fill="#63b8ff" stroke="#63b8ff" points="415.18,-45.53 420.98,-36.66 410.92,-39.98 415.18,-45.53"/>
</a>
</g>
<g id="a_edge6&#45;headlabel"><a xlink:href="dir_000042_000046.html" target="_top" xlink:title="2">
<text text-anchor="middle" x="415.26" y="-45.17" font-family="Helvetica,sans-Serif" font-size="10.00" fill="#63b8ff">2</text>
</a>
</g>
</g>
<!-- dir_f449e64e40a305c379232bc791e77932&#45;&gt;dir_9be0baa3d4a3e9f480a9ee70594037fa -->
<g id="edge9" class="edge">
<title>dir_f449e64e40a305c379232bc791e77932&#45;&gt;dir_9be0baa3d4a3e9f480a9ee70594037fa</title>
<g id="a_edge9"><a xlink:href="dir_000043_000242.html" target="_top">
<path fill="none" stroke="#63b8ff" d="M242.21,-70.77C237.35,-68.23 232.01,-65.55 227,-63.25 207.65,-54.36 185.49,-45.41 167.89,-38.59"/>
<polygon fill="#63b8ff" stroke="#63b8ff" points="169.58,-35.49 158.99,-35.18 167.07,-42.03 169.58,-35.49"/>
</a>
</g>
<g id="a_edge9&#45;headlabel"><a xlink:href="dir_000043_000242.html" target="_top" xlink:title="3">
<text text-anchor="middle" x="172.54" y="-29.71" font-family="Helvetica,sans-Serif" font-size="10.00" fill="#63b8ff">3</text>
</a>
</g>
</g>
<!-- dir_f449e64e40a305c379232bc791e77932&#45;&gt;dir_40ac35421bc63b72c26b6c69b1517fd6 -->
<g id="edge11" class="edge">
<title>dir_f449e64e40a305c379232bc791e77932&#45;&gt;dir_40ac35421bc63b72c26b6c69b1517fd6</title>
<g id="a_edge11"><a xlink:href="dir_000043_000523.html" target="_top">
<path fill="none" stroke="#63b8ff" d="M250.41,-71.08C243.16,-63.65 232.55,-52.79 223.63,-43.66"/>
<polygon fill="#63b8ff" stroke="#63b8ff" points="226.32,-41.4 216.83,-36.69 221.31,-46.29 226.32,-41.4"/>
</a>
</g>
<g id="a_edge11&#45;headlabel"><a xlink:href="dir_000043_000523.html" target="_top" xlink:title="10">
<text text-anchor="middle" x="229.81" y="-37.03" font-family="Helvetica,sans-Serif" font-size="10.00" fill="#63b8ff">10</text>
</a>
</g>
</g>
<!-- dir_f449e64e40a305c379232bc791e77932&#45;&gt;dir_bdd9a5d540de89e9fe90efdfc6973a4f -->
<g id="edge10" class="edge">
<title>dir_f449e64e40a305c379232bc791e77932&#45;&gt;dir_bdd9a5d540de89e9fe90efdfc6973a4f</title>
<g id="a_edge10"><a xlink:href="dir_000043_000046.html" target="_top">
<path fill="none" stroke="#63b8ff" d="M287.12,-71.32C316.59,-62.35 363.08,-48.21 395.85,-38.23"/>
<polygon fill="#63b8ff" stroke="#63b8ff" points="396.82,-41.6 405.37,-35.34 394.78,-34.9 396.82,-41.6"/>
</a>
</g>
<g id="a_edge10&#45;headlabel"><a xlink:href="dir_000043_000046.html" target="_top" xlink:title="5">
<text text-anchor="middle" x="395.66" y="-41.04" font-family="Helvetica,sans-Serif" font-size="10.00" fill="#63b8ff">5</text>
</a>
</g>
</g>
<!-- dir_c39f392af7f13c65e7a482de8f63f0c9 -->
<g id="node7" class="node">
<title>dir_c39f392af7f13c65e7a482de8f63f0c9</title>
<g id="a_node7"><a xlink:href="dir_c39f392af7f13c65e7a482de8f63f0c9.html" target="_top" xlink:title="cdvdstm">
<polygon fill="#60a2e3" stroke="#404040" points="208.75,-145.75 155.25,-145.75 155.25,-126.5 208.75,-126.5 208.75,-145.75"/>
<text text-anchor="middle" x="182" y="-132.25" font-family="Helvetica,sans-Serif" font-size="10.00">cdvdstm</text>
</a>
</g>
</g>
<!-- dir_c39f392af7f13c65e7a482de8f63f0c9&#45;&gt;dir_9be0baa3d4a3e9f480a9ee70594037fa -->
<g id="edge13" class="edge">
<title>dir_c39f392af7f13c65e7a482de8f63f0c9&#45;&gt;dir_9be0baa3d4a3e9f480a9ee70594037fa</title>
<g id="a_edge13"><a xlink:href="dir_000044_000242.html" target="_top">
<path fill="none" stroke="#63b8ff" d="M178.24,-126.25C170.86,-108.84 154.34,-69.87 144.28,-46.16"/>
<polygon fill="#63b8ff" stroke="#63b8ff" points="147.53,-44.86 140.41,-37.02 141.09,-47.59 147.53,-44.86"/>
</a>
</g>
<g id="a_edge13&#45;headlabel"><a xlink:href="dir_000044_000242.html" target="_top" xlink:title="2">
<text text-anchor="middle" x="150.96" y="-41.79" font-family="Helvetica,sans-Serif" font-size="10.00" fill="#63b8ff">2</text>
</a>
</g>
</g>
<!-- dir_c39f392af7f13c65e7a482de8f63f0c9&#45;&gt;dir_40ac35421bc63b72c26b6c69b1517fd6 -->
<g id="edge15" class="edge">
<title>dir_c39f392af7f13c65e7a482de8f63f0c9&#45;&gt;dir_40ac35421bc63b72c26b6c69b1517fd6</title>
<g id="a_edge15"><a xlink:href="dir_000044_000523.html" target="_top">
<path fill="none" stroke="#63b8ff" d="M184.05,-126.25C188.02,-109 196.87,-70.58 202.35,-46.81"/>
<polygon fill="#63b8ff" stroke="#63b8ff" points="205.75,-47.63 204.59,-37.1 198.93,-46.06 205.75,-47.63"/>
</a>
</g>
<g id="a_edge15&#45;headlabel"><a xlink:href="dir_000044_000523.html" target="_top" xlink:title="10">
<text text-anchor="middle" x="208.05" y="-46.42" font-family="Helvetica,sans-Serif" font-size="10.00" fill="#63b8ff">10</text>
</a>
</g>
</g>
<!-- dir_c39f392af7f13c65e7a482de8f63f0c9&#45;&gt;dir_f449e64e40a305c379232bc791e77932 -->
<g id="edge14" class="edge">
<title>dir_c39f392af7f13c65e7a482de8f63f0c9&#45;&gt;dir_f449e64e40a305c379232bc791e77932</title>
<g id="a_edge14"><a xlink:href="dir_000044_000043.html" target="_top">
<path fill="none" stroke="#63b8ff" d="M195.06,-126.09C206.46,-118.21 223.23,-106.61 236.74,-97.27"/>
<polygon fill="#63b8ff" stroke="#63b8ff" points="238.4,-100.38 244.63,-91.81 234.41,-94.62 238.4,-100.38"/>
</a>
</g>
<g id="a_edge14&#45;headlabel"><a xlink:href="dir_000044_000043.html" target="_top" xlink:title="1">
<text text-anchor="middle" x="238.3" y="-100.02" font-family="Helvetica,sans-Serif" font-size="10.00" fill="#63b8ff">1</text>
</a>
</g>
</g>
<!-- dir_c39f392af7f13c65e7a482de8f63f0c9&#45;&gt;dir_bdd9a5d540de89e9fe90efdfc6973a4f -->
<g id="edge12" class="edge">
<title>dir_c39f392af7f13c65e7a482de8f63f0c9&#45;&gt;dir_bdd9a5d540de89e9fe90efdfc6973a4f</title>
<g id="a_edge12"><a xlink:href="dir_000044_000046.html" target="_top">
<path fill="none" stroke="#63b8ff" d="M209.11,-128.55C212.11,-127.85 215.12,-127.15 218,-126.5 292.9,-109.55 322.48,-132.15 387,-90.5 403.96,-79.55 416.91,-60.19 424.88,-45.65"/>
<polygon fill="#63b8ff" stroke="#63b8ff" points="427.85,-47.52 429.3,-37.03 421.62,-44.33 427.85,-47.52"/>
</a>
</g>
<g id="a_edge12&#45;headlabel"><a xlink:href="dir_000044_000046.html" target="_top" xlink:title="2">
<text text-anchor="middle" x="429.43" y="-46.8" font-family="Helvetica,sans-Serif" font-size="10.00" fill="#63b8ff">2</text>
</a>
</g>
</g>
<!-- dir_9cb22f3580e9b820d735857d49891159 -->
<g id="node8" class="node">
<title>dir_9cb22f3580e9b820d735857d49891159</title>
<g id="a_node8"><a xlink:href="dir_9cb22f3580e9b820d735857d49891159.html" target="_top" xlink:title="poffsim">
<polygon fill="#60a2e3" stroke="#404040" points="274.75,-145.75 227.25,-145.75 227.25,-126.5 274.75,-126.5 274.75,-145.75"/>
<text text-anchor="middle" x="251" y="-132.25" font-family="Helvetica,sans-Serif" font-size="10.00">poffsim</text>
</a>
</g>
</g>
<!-- dir_9cb22f3580e9b820d735857d49891159&#45;&gt;dir_9be0baa3d4a3e9f480a9ee70594037fa -->
<g id="edge16" class="edge">
<title>dir_9cb22f3580e9b820d735857d49891159&#45;&gt;dir_9be0baa3d4a3e9f480a9ee70594037fa</title>
<g id="a_edge16"><a xlink:href="dir_000290_000242.html" target="_top">
<path fill="none" stroke="#63b8ff" d="M235.6,-126.15C222.03,-117.84 202.12,-104.67 187,-90.5 172.15,-76.58 157.93,-58.21 148.29,-44.74"/>
<polygon fill="#63b8ff" stroke="#63b8ff" points="151.34,-42.99 142.75,-36.79 145.6,-47 151.34,-42.99"/>
</a>
</g>
<g id="a_edge16&#45;headlabel"><a xlink:href="dir_000290_000242.html" target="_top" xlink:title="1">
<text text-anchor="middle" x="154.86" y="-39.2" font-family="Helvetica,sans-Serif" font-size="10.00" fill="#63b8ff">1</text>
</a>
</g>
</g>
<!-- dir_9cb22f3580e9b820d735857d49891159&#45;&gt;dir_40ac35421bc63b72c26b6c69b1517fd6 -->
<g id="edge18" class="edge">
<title>dir_9cb22f3580e9b820d735857d49891159&#45;&gt;dir_40ac35421bc63b72c26b6c69b1517fd6</title>
<g id="a_edge18"><a xlink:href="dir_000290_000523.html" target="_top">
<path fill="none" stroke="#63b8ff" d="M263.84,-126.16C281.88,-112.45 310.91,-85.51 296,-63.25 284.01,-45.35 261.51,-36.19 242.14,-31.5"/>
<polygon fill="#63b8ff" stroke="#63b8ff" points="242.88,-28.08 232.38,-29.49 241.46,-34.94 242.88,-28.08"/>
</a>
</g>
<g id="a_edge18&#45;headlabel"><a xlink:href="dir_000290_000523.html" target="_top" xlink:title="4">
<text text-anchor="middle" x="245.49" y="-21.85" font-family="Helvetica,sans-Serif" font-size="10.00" fill="#63b8ff">4</text>
</a>
</g>
</g>
<!-- dir_9cb22f3580e9b820d735857d49891159&#45;&gt;dir_f449e64e40a305c379232bc791e77932 -->
<g id="edge17" class="edge">
<title>dir_9cb22f3580e9b820d735857d49891159&#45;&gt;dir_f449e64e40a305c379232bc791e77932</title>
<g id="a_edge17"><a xlink:href="dir_000290_000043.html" target="_top">
<path fill="none" stroke="#63b8ff" d="M252.32,-126.33C253.31,-119.74 254.71,-110.46 255.97,-102.07"/>
<polygon fill="#63b8ff" stroke="#63b8ff" points="259.4,-102.76 257.43,-92.36 252.48,-101.72 259.4,-102.76"/>
</a>
</g>
<g id="a_edge17&#45;headlabel"><a xlink:href="dir_000290_000043.html" target="_top" xlink:title="1">
<text text-anchor="middle" x="261.9" y="-101.37" font-family="Helvetica,sans-Serif" font-size="10.00" fill="#63b8ff">1</text>
</a>
</g>
</g>
<!-- dir_e9f6397765e90b9450cf2a2f2169ae17 -->
<g id="node9" class="node">
<title>dir_e9f6397765e90b9450cf2a2f2169ae17</title>
<g id="a_node9"><a xlink:href="dir_e9f6397765e90b9450cf2a2f2169ae17.html" target="_top" xlink:title="xesdrv">
<polygon fill="#60a2e3" stroke="#404040" points="68.25,-145.75 23.75,-145.75 23.75,-126.5 68.25,-126.5 68.25,-145.75"/>
<text text-anchor="middle" x="46" y="-132.25" font-family="Helvetica,sans-Serif" font-size="10.00">xesdrv</text>
</a>
</g>
</g>
<!-- dir_e9f6397765e90b9450cf2a2f2169ae17&#45;&gt;dir_9be0baa3d4a3e9f480a9ee70594037fa -->
<g id="edge20" class="edge">
<title>dir_e9f6397765e90b9450cf2a2f2169ae17&#45;&gt;dir_9be0baa3d4a3e9f480a9ee70594037fa</title>
<g id="a_edge20"><a xlink:href="dir_000545_000242.html" target="_top">
<path fill="none" stroke="#63b8ff" d="M45.96,-126.14C46.34,-111.43 49.09,-81.96 64,-63.25 74.17,-50.49 89.97,-41.76 104.17,-36.04"/>
<polygon fill="#63b8ff" stroke="#63b8ff" points="105,-39.47 113.19,-32.75 102.6,-32.89 105,-39.47"/>
</a>
</g>
<g id="a_edge20&#45;headlabel"><a xlink:href="dir_000545_000242.html" target="_top" xlink:title="1">
<text text-anchor="middle" x="104.01" y="-38.97" font-family="Helvetica,sans-Serif" font-size="10.00" fill="#63b8ff">1</text>
</a>
</g>
</g>
<!-- dir_e9f6397765e90b9450cf2a2f2169ae17&#45;&gt;dir_40ac35421bc63b72c26b6c69b1517fd6 -->
<g id="edge19" class="edge">
<title>dir_e9f6397765e90b9450cf2a2f2169ae17&#45;&gt;dir_40ac35421bc63b72c26b6c69b1517fd6</title>
<g id="a_edge19"><a xlink:href="dir_000545_000523.html" target="_top">
<path fill="none" stroke="#63b8ff" d="M58.71,-126.13C78.22,-112.39 116.76,-85.4 150,-63.25 160.86,-56.01 173.02,-48.16 183.31,-41.59"/>
<polygon fill="#63b8ff" stroke="#63b8ff" points="185.02,-44.66 191.58,-36.34 181.27,-38.75 185.02,-44.66"/>
</a>
</g>
<g id="a_edge19&#45;headlabel"><a xlink:href="dir_000545_000523.html" target="_top" xlink:title="4">
<text text-anchor="middle" x="184.79" y="-44.29" font-family="Helvetica,sans-Serif" font-size="10.00" fill="#63b8ff">4</text>
</a>
</g>
</g>
<!-- dir_e9f6397765e90b9450cf2a2f2169ae17&#45;&gt;dir_bdd9a5d540de89e9fe90efdfc6973a4f -->
<g id="edge21" class="edge">
<title>dir_e9f6397765e90b9450cf2a2f2169ae17&#45;&gt;dir_bdd9a5d540de89e9fe90efdfc6973a4f</title>
<g id="a_edge21"><a xlink:href="dir_000545_000046.html" target="_top">
<path fill="none" stroke="#63b8ff" d="M68.66,-128.72C71.78,-127.92 74.96,-127.16 78,-126.5 173.97,-105.7 202.76,-121.32 296,-90.5 321.15,-82.19 325.05,-74.55 349,-63.25 366.12,-55.17 385.49,-46.77 401.4,-40.06"/>
<polygon fill="#63b8ff" stroke="#63b8ff" points="402.53,-43.38 410.41,-36.29 399.83,-36.92 402.53,-43.38"/>
</a>
</g>
<g id="a_edge21&#45;headlabel"><a xlink:href="dir_000545_000046.html" target="_top" xlink:title="1">
<text text-anchor="middle" x="401.71" y="-42.93" font-family="Helvetica,sans-Serif" font-size="10.00" fill="#63b8ff">1</text>
</a>
</g>
</g>
</g>
</svg>
</svg>

<style type='text/css'>
<![CDATA[
[data-mouse-over-selected='false'] { opacity: 0.7; }
[data-mouse-over-selected='true']  { opacity: 1.0; }
]]>
</style>
<script type="application/ecmascript"><![CDATA[
document.addEventListener('DOMContentLoaded', (event) => {
  highlightEdges();
  highlightAdjacentNodes();
});
]]></script>
</svg>
