<?xml version="1.0" encoding="UTF-8" standalone="no"?>
<!DOCTYPE svg PUBLIC "-//W3C//DTD SVG 1.1//EN"
 "http://www.w3.org/Graphics/SVG/1.1/DTD/svg11.dtd">
<!-- Generated by graphviz version 9.0.0 (20230911.1827)
 -->
<!-- Title: iop/system/boardinf Pages: 1 -->
<svg width="268pt" height="142pt"
 viewBox="0.00 0.00 268.12 141.75" xmlns="http://www.w3.org/2000/svg" xmlns:xlink="http://www.w3.org/1999/xlink">
<g id="graph0" class="graph" transform="scale(1 1) rotate(0) translate(4 137.75)">
<title>iop/system/boardinf</title>
<g id="clust1" class="cluster">
<title>clusterdir_40ac35421bc63b72c26b6c69b1517fd6</title>
<g id="a_clust1"><a xlink:href="dir_40ac35421bc63b72c26b6c69b1517fd6.html" target="_top" xlink:title="system">
<polygon fill="#deebf9" stroke="#7f7f7f" stroke-dasharray="5,2" points="8,-8 8,-125.75 138,-125.75 138,-8 8,-8"/>
<text text-anchor="middle" x="73" y="-112.25" font-family="Helvetica,sans-Serif" font-size="10.00">system</text>
</a>
</g>
</g>
<g id="clust2" class="cluster">
<title>clusterdir_5ec8cbed913f77dce8be99aba816b4e2</title>
<g id="a_clust2"><a xlink:href="dir_5ec8cbed913f77dce8be99aba816b4e2.html" target="_top">
<polygon fill="#deebf9" stroke="#404040" stroke-width="2" points="16,-63.25 16,-98.5 130,-98.5 130,-63.25 16,-63.25"/>
</a>
</g>
</g>
<!-- dir_1d64e5e9f20206636d72b5bbe3d2b274 -->
<g id="node1" class="node">
<title>dir_1d64e5e9f20206636d72b5bbe3d2b274</title>
<g id="a_node1"><a xlink:href="dir_1d64e5e9f20206636d72b5bbe3d2b274.html" target="_top" xlink:title="loadcore">
<polygon fill="#60a2e3" stroke="red" points="68.38,-35.25 15.62,-35.25 15.62,-16 68.38,-16 68.38,-35.25"/>
<text text-anchor="middle" x="42" y="-21.75" font-family="Helvetica,sans-Serif" font-size="10.00">loadcore</text>
</a>
</g>
</g>
<!-- dir_5ec8cbed913f77dce8be99aba816b4e2 -->
<g id="node2" class="node">
<title>dir_5ec8cbed913f77dce8be99aba816b4e2</title>
<text text-anchor="middle" x="97" y="-77" font-family="Helvetica,sans-Serif" font-size="10.00">boardinf</text>
</g>
<!-- dir_affa5bc1c2f19f5b87b45a614768f7a2 -->
<g id="node3" class="node">
<title>dir_affa5bc1c2f19f5b87b45a614768f7a2</title>
<g id="a_node3"><a xlink:href="dir_affa5bc1c2f19f5b87b45a614768f7a2.html" target="_top" xlink:title="src">
<polygon fill="#60a2e3" stroke="#404040" points="53.75,-90.5 24.25,-90.5 24.25,-71.25 53.75,-71.25 53.75,-90.5"/>
<text text-anchor="middle" x="39" y="-77" font-family="Helvetica,sans-Serif" font-size="10.00">src</text>
</a>
</g>
</g>
<!-- dir_affa5bc1c2f19f5b87b45a614768f7a2&#45;&gt;dir_1d64e5e9f20206636d72b5bbe3d2b274 -->
<g id="edge1" class="edge">
<title>dir_affa5bc1c2f19f5b87b45a614768f7a2&#45;&gt;dir_1d64e5e9f20206636d72b5bbe3d2b274</title>
<g id="a_edge1"><a xlink:href="dir_000463_000257.html" target="_top">
<path fill="none" stroke="#63b8ff" d="M39.5,-71.08C39.87,-64.49 40.39,-55.21 40.86,-46.82"/>
<polygon fill="#63b8ff" stroke="#63b8ff" points="44.34,-47.3 41.41,-37.12 37.35,-46.91 44.34,-47.3"/>
</a>
</g>
<g id="a_edge1&#45;headlabel"><a xlink:href="dir_000463_000257.html" target="_top" xlink:title="1">
<text text-anchor="middle" x="47.06" y="-45.66" font-family="Helvetica,sans-Serif" font-size="10.00" fill="#63b8ff">1</text>
</a>
</g>
</g>
<!-- dir_bdd9a5d540de89e9fe90efdfc6973a4f -->
<g id="node4" class="node">
<title>dir_bdd9a5d540de89e9fe90efdfc6973a4f</title>
<g id="a_node4"><a xlink:href="dir_bdd9a5d540de89e9fe90efdfc6973a4f.html" target="_top" xlink:title="common">
<polygon fill="#deebf9" stroke="red" points="199.75,-35.25 146.25,-35.25 146.25,-16 199.75,-16 199.75,-35.25"/>
<text text-anchor="middle" x="173" y="-21.75" font-family="Helvetica,sans-Serif" font-size="10.00">common</text>
</a>
</g>
</g>
<!-- dir_affa5bc1c2f19f5b87b45a614768f7a2&#45;&gt;dir_bdd9a5d540de89e9fe90efdfc6973a4f -->
<g id="edge3" class="edge">
<title>dir_affa5bc1c2f19f5b87b45a614768f7a2&#45;&gt;dir_bdd9a5d540de89e9fe90efdfc6973a4f</title>
<g id="a_edge3"><a xlink:href="dir_000463_000046.html" target="_top">
<path fill="none" stroke="#63b8ff" d="M50.31,-71.06C54.18,-68.31 58.65,-65.43 63,-63.25 75.84,-56.83 108.51,-46.2 134.94,-38.04"/>
<polygon fill="#63b8ff" stroke="#63b8ff" points="135.82,-41.43 144.36,-35.15 133.77,-34.73 135.82,-41.43"/>
</a>
</g>
<g id="a_edge3&#45;headlabel"><a xlink:href="dir_000463_000046.html" target="_top" xlink:title="1">
<text text-anchor="middle" x="134.66" y="-40.88" font-family="Helvetica,sans-Serif" font-size="10.00" fill="#63b8ff">1</text>
</a>
</g>
</g>
<!-- dir_9be0baa3d4a3e9f480a9ee70594037fa -->
<g id="node5" class="node">
<title>dir_9be0baa3d4a3e9f480a9ee70594037fa</title>
<g id="a_node5"><a xlink:href="dir_9be0baa3d4a3e9f480a9ee70594037fa.html" target="_top" xlink:title="kernel">
<polygon fill="#deebf9" stroke="red" stroke-dasharray="5,2" points="260.12,-35.25 217.88,-35.25 217.88,-16 260.12,-16 260.12,-35.25"/>
<text text-anchor="middle" x="239" y="-21.75" font-family="Helvetica,sans-Serif" font-size="10.00">kernel</text>
</a>
</g>
</g>
<!-- dir_affa5bc1c2f19f5b87b45a614768f7a2&#45;&gt;dir_9be0baa3d4a3e9f480a9ee70594037fa -->
<g id="edge2" class="edge">
<title>dir_affa5bc1c2f19f5b87b45a614768f7a2&#45;&gt;dir_9be0baa3d4a3e9f480a9ee70594037fa</title>
<g id="a_edge2"><a xlink:href="dir_000463_000242.html" target="_top">
<path fill="none" stroke="#63b8ff" d="M49.67,-71.07C53.64,-68.18 58.33,-65.21 63,-63.25 120.7,-39.01 142.43,-49.36 206.35,-35.61"/>
<polygon fill="#63b8ff" stroke="#63b8ff" points="206.99,-39.05 215.96,-33.42 205.43,-32.23 206.99,-39.05"/>
</a>
</g>
<g id="a_edge2&#45;headlabel"><a xlink:href="dir_000463_000242.html" target="_top" xlink:title="1">
<text text-anchor="middle" x="205.59" y="-38.41" font-family="Helvetica,sans-Serif" font-size="10.00" fill="#63b8ff">1</text>
</a>
</g>
</g>
</g>
</svg>
