<?xml version="1.0" encoding="UTF-8" standalone="no"?>
<!DOCTYPE svg PUBLIC "-//W3C//DTD SVG 1.1//EN"
 "http://www.w3.org/Graphics/SVG/1.1/DTD/svg11.dtd">
<!-- Generated by graphviz version 9.0.0 (20230911.1827)
 -->
<!-- Title: iop/system/rmman Pages: 1 -->
<svg width="612pt" height="181pt"
 viewBox="0.00 0.00 612.12 181.00" xmlns="http://www.w3.org/2000/svg" xmlns:xlink="http://www.w3.org/1999/xlink">
<g id="graph0" class="graph" transform="scale(1 1) rotate(0) translate(4 177)">
<title>iop/system/rmman</title>
<g id="clust1" class="cluster">
<title>clusterdir_40ac35421bc63b72c26b6c69b1517fd6</title>
<g id="a_clust1"><a xlink:href="dir_40ac35421bc63b72c26b6c69b1517fd6.html" target="_top" xlink:title="system">
<polygon fill="#deebf9" stroke="#7f7f7f" stroke-dasharray="5,2" points="12.12,-39.25 12.12,-165 596.12,-165 596.12,-39.25 12.12,-39.25"/>
<text text-anchor="middle" x="304.12" y="-151.5" font-family="Helvetica,sans-Serif" font-size="10.00">system</text>
</a>
</g>
</g>
<g id="clust2" class="cluster">
<title>clusterdir_fe7329d8b89241d59f89f45fd75d2e77</title>
<g id="a_clust2"><a xlink:href="dir_fe7329d8b89241d59f89f45fd75d2e77.html" target="_top">
<polygon fill="#deebf9" stroke="#404040" stroke-width="2" points="20.12,-47.25 20.12,-137.75 130.12,-137.75 130.12,-47.25 20.12,-47.25"/>
</a>
</g>
</g>
<!-- dir_7422a0894415a12ccd1d562a8ad09f2d -->
<g id="node1" class="node">
<title>dir_7422a0894415a12ccd1d562a8ad09f2d</title>
<g id="a_node1"><a xlink:href="dir_7422a0894415a12ccd1d562a8ad09f2d.html" target="_top" xlink:title="intrman">
<polygon fill="#60a2e3" stroke="red" points="186.25,-74.5 138,-74.5 138,-55.25 186.25,-55.25 186.25,-74.5"/>
<text text-anchor="middle" x="162.12" y="-61" font-family="Helvetica,sans-Serif" font-size="10.00">intrman</text>
</a>
</g>
</g>
<!-- dir_1d64e5e9f20206636d72b5bbe3d2b274 -->
<g id="node2" class="node">
<title>dir_1d64e5e9f20206636d72b5bbe3d2b274</title>
<g id="a_node2"><a xlink:href="dir_1d64e5e9f20206636d72b5bbe3d2b274.html" target="_top" xlink:title="loadcore">
<polygon fill="#60a2e3" stroke="red" points="257.5,-74.5 204.75,-74.5 204.75,-55.25 257.5,-55.25 257.5,-74.5"/>
<text text-anchor="middle" x="231.12" y="-61" font-family="Helvetica,sans-Serif" font-size="10.00">loadcore</text>
</a>
</g>
</g>
<!-- dir_1fd4d135da32a6b9ad91946f648cae84 -->
<g id="node3" class="node">
<title>dir_1fd4d135da32a6b9ad91946f648cae84</title>
<g id="a_node3"><a xlink:href="dir_1fd4d135da32a6b9ad91946f648cae84.html" target="_top" xlink:title="sio2man">
<polygon fill="#60a2e3" stroke="red" points="328.5,-74.5 275.75,-74.5 275.75,-55.25 328.5,-55.25 328.5,-74.5"/>
<text text-anchor="middle" x="302.12" y="-61" font-family="Helvetica,sans-Serif" font-size="10.00">sio2man</text>
</a>
</g>
</g>
<!-- dir_a0d37aaf829787e8da99f7ff6597b371 -->
<g id="node4" class="node">
<title>dir_a0d37aaf829787e8da99f7ff6597b371</title>
<g id="a_node4"><a xlink:href="dir_a0d37aaf829787e8da99f7ff6597b371.html" target="_top" xlink:title="sifman">
<polygon fill="#60a2e3" stroke="red" points="391.75,-74.5 346.5,-74.5 346.5,-55.25 391.75,-55.25 391.75,-74.5"/>
<text text-anchor="middle" x="369.12" y="-61" font-family="Helvetica,sans-Serif" font-size="10.00">sifman</text>
</a>
</g>
</g>
<!-- dir_952a988346c879bc3b2834e2377036db -->
<g id="node5" class="node">
<title>dir_952a988346c879bc3b2834e2377036db</title>
<g id="a_node5"><a xlink:href="dir_952a988346c879bc3b2834e2377036db.html" target="_top" xlink:title="stdio">
<polygon fill="#60a2e3" stroke="red" points="446.62,-74.5 409.62,-74.5 409.62,-55.25 446.62,-55.25 446.62,-74.5"/>
<text text-anchor="middle" x="428.12" y="-61" font-family="Helvetica,sans-Serif" font-size="10.00">stdio</text>
</a>
</g>
</g>
<!-- dir_d3b40e87d731c1e886b7a70e6daaf700 -->
<g id="node6" class="node">
<title>dir_d3b40e87d731c1e886b7a70e6daaf700</title>
<g id="a_node6"><a xlink:href="dir_d3b40e87d731c1e886b7a70e6daaf700.html" target="_top" xlink:title="threadman">
<polygon fill="#60a2e3" stroke="red" points="526,-74.5 464.25,-74.5 464.25,-55.25 526,-55.25 526,-74.5"/>
<text text-anchor="middle" x="495.12" y="-61" font-family="Helvetica,sans-Serif" font-size="10.00">threadman</text>
</a>
</g>
</g>
<!-- dir_60f7c75aab99249ed9879339d7562ada -->
<g id="node7" class="node">
<title>dir_60f7c75aab99249ed9879339d7562ada</title>
<g id="a_node7"><a xlink:href="dir_60f7c75aab99249ed9879339d7562ada.html" target="_top" xlink:title="vblank">
<polygon fill="#60a2e3" stroke="red" points="588.38,-74.5 543.88,-74.5 543.88,-55.25 588.38,-55.25 588.38,-74.5"/>
<text text-anchor="middle" x="566.12" y="-61" font-family="Helvetica,sans-Serif" font-size="10.00">vblank</text>
</a>
</g>
</g>
<!-- dir_fe7329d8b89241d59f89f45fd75d2e77 -->
<g id="node8" class="node">
<title>dir_fe7329d8b89241d59f89f45fd75d2e77</title>
<text text-anchor="middle" x="99.12" y="-116.25" font-family="Helvetica,sans-Serif" font-size="10.00">rmman</text>
</g>
<!-- dir_ba0bf5790b75dbb76cd621ad13634675 -->
<g id="node9" class="node">
<title>dir_ba0bf5790b75dbb76cd621ad13634675</title>
<g id="a_node9"><a xlink:href="dir_ba0bf5790b75dbb76cd621ad13634675.html" target="_top" xlink:title="include">
<polygon fill="#60a2e3" stroke="#404040" points="95.5,-74.5 48.75,-74.5 48.75,-55.25 95.5,-55.25 95.5,-74.5"/>
<text text-anchor="middle" x="72.12" y="-61" font-family="Helvetica,sans-Serif" font-size="10.00">include</text>
</a>
</g>
</g>
<!-- dir_9be0baa3d4a3e9f480a9ee70594037fa -->
<g id="node11" class="node">
<title>dir_9be0baa3d4a3e9f480a9ee70594037fa</title>
<g id="a_node11"><a xlink:href="dir_9be0baa3d4a3e9f480a9ee70594037fa.html" target="_top" xlink:title="kernel">
<polygon fill="#deebf9" stroke="red" stroke-dasharray="5,2" points="42.25,-19.25 0,-19.25 0,0 42.25,0 42.25,-19.25"/>
<text text-anchor="middle" x="21.12" y="-5.75" font-family="Helvetica,sans-Serif" font-size="10.00">kernel</text>
</a>
</g>
</g>
<!-- dir_ba0bf5790b75dbb76cd621ad13634675&#45;&gt;dir_9be0baa3d4a3e9f480a9ee70594037fa -->
<g id="edge1" class="edge">
<title>dir_ba0bf5790b75dbb76cd621ad13634675&#45;&gt;dir_9be0baa3d4a3e9f480a9ee70594037fa</title>
<g id="a_edge1"><a xlink:href="dir_000207_000242.html" target="_top">
<path fill="none" stroke="#63b8ff" d="M63.7,-55.08C56.59,-47.65 46.18,-36.79 37.44,-27.66"/>
<polygon fill="#63b8ff" stroke="#63b8ff" points="40.22,-25.5 30.78,-20.7 35.17,-30.35 40.22,-25.5"/>
</a>
</g>
<g id="a_edge1&#45;headlabel"><a xlink:href="dir_000207_000242.html" target="_top" xlink:title="1">
<text text-anchor="middle" x="43.71" y="-21.17" font-family="Helvetica,sans-Serif" font-size="10.00" fill="#63b8ff">1</text>
</a>
</g>
</g>
<!-- dir_bdd9a5d540de89e9fe90efdfc6973a4f -->
<g id="node12" class="node">
<title>dir_bdd9a5d540de89e9fe90efdfc6973a4f</title>
<g id="a_node12"><a xlink:href="dir_bdd9a5d540de89e9fe90efdfc6973a4f.html" target="_top" xlink:title="common">
<polygon fill="#deebf9" stroke="red" points="113.88,-19.25 60.38,-19.25 60.38,0 113.88,0 113.88,-19.25"/>
<text text-anchor="middle" x="87.12" y="-5.75" font-family="Helvetica,sans-Serif" font-size="10.00">common</text>
</a>
</g>
</g>
<!-- dir_ba0bf5790b75dbb76cd621ad13634675&#45;&gt;dir_bdd9a5d540de89e9fe90efdfc6973a4f -->
<g id="edge2" class="edge">
<title>dir_ba0bf5790b75dbb76cd621ad13634675&#45;&gt;dir_bdd9a5d540de89e9fe90efdfc6973a4f</title>
<g id="a_edge2"><a xlink:href="dir_000207_000046.html" target="_top">
<path fill="none" stroke="#63b8ff" d="M74.6,-55.08C76.48,-48.42 79.13,-38.99 81.52,-30.53"/>
<polygon fill="#63b8ff" stroke="#63b8ff" points="84.84,-31.64 84.18,-21.07 78.1,-29.74 84.84,-31.64"/>
</a>
</g>
<g id="a_edge2&#45;headlabel"><a xlink:href="dir_000207_000046.html" target="_top" xlink:title="1">
<text text-anchor="middle" x="87.01" y="-30.54" font-family="Helvetica,sans-Serif" font-size="10.00" fill="#63b8ff">1</text>
</a>
</g>
</g>
<!-- dir_4b4edfc69082ccc9fa978b057a42ad24 -->
<g id="node10" class="node">
<title>dir_4b4edfc69082ccc9fa978b057a42ad24</title>
<g id="a_node10"><a xlink:href="dir_4b4edfc69082ccc9fa978b057a42ad24.html" target="_top" xlink:title="src">
<polygon fill="#60a2e3" stroke="#404040" points="57.88,-129.75 28.38,-129.75 28.38,-110.5 57.88,-110.5 57.88,-129.75"/>
<text text-anchor="middle" x="43.12" y="-116.25" font-family="Helvetica,sans-Serif" font-size="10.00">src</text>
</a>
</g>
</g>
<!-- dir_4b4edfc69082ccc9fa978b057a42ad24&#45;&gt;dir_7422a0894415a12ccd1d562a8ad09f2d -->
<g id="edge6" class="edge">
<title>dir_4b4edfc69082ccc9fa978b057a42ad24&#45;&gt;dir_7422a0894415a12ccd1d562a8ad09f2d</title>
<g id="a_edge6"><a xlink:href="dir_000480_000232.html" target="_top">
<path fill="none" stroke="#63b8ff" d="M58.2,-112.38C76.55,-104.17 108.02,-90.09 131.53,-79.57"/>
<polygon fill="#63b8ff" stroke="#63b8ff" points="132.94,-82.77 140.64,-75.49 130.08,-76.38 132.94,-82.77"/>
</a>
</g>
<g id="a_edge6&#45;headlabel"><a xlink:href="dir_000480_000232.html" target="_top" xlink:title="2">
<text text-anchor="middle" x="132.2" y="-82.34" font-family="Helvetica,sans-Serif" font-size="10.00" fill="#63b8ff">2</text>
</a>
</g>
</g>
<!-- dir_4b4edfc69082ccc9fa978b057a42ad24&#45;&gt;dir_1d64e5e9f20206636d72b5bbe3d2b274 -->
<g id="edge3" class="edge">
<title>dir_4b4edfc69082ccc9fa978b057a42ad24&#45;&gt;dir_1d64e5e9f20206636d72b5bbe3d2b274</title>
<g id="a_edge3"><a xlink:href="dir_000480_000257.html" target="_top">
<path fill="none" stroke="#63b8ff" d="M58.3,-113.47C61.21,-112.44 64.25,-111.41 67.12,-110.5 110.05,-96.97 160.04,-83.72 193.44,-75.22"/>
<polygon fill="#63b8ff" stroke="#63b8ff" points="194.22,-78.64 203.05,-72.79 192.5,-71.85 194.22,-78.64"/>
</a>
</g>
<g id="a_edge3&#45;headlabel"><a xlink:href="dir_000480_000257.html" target="_top" xlink:title="2">
<text text-anchor="middle" x="192.89" y="-78.02" font-family="Helvetica,sans-Serif" font-size="10.00" fill="#63b8ff">2</text>
</a>
</g>
</g>
<!-- dir_4b4edfc69082ccc9fa978b057a42ad24&#45;&gt;dir_1fd4d135da32a6b9ad91946f648cae84 -->
<g id="edge4" class="edge">
<title>dir_4b4edfc69082ccc9fa978b057a42ad24&#45;&gt;dir_1fd4d135da32a6b9ad91946f648cae84</title>
<g id="a_edge4"><a xlink:href="dir_000480_000318.html" target="_top">
<path fill="none" stroke="#63b8ff" d="M58.24,-113.26C61.16,-112.25 64.22,-111.28 67.12,-110.5 150.55,-88.13 176.18,-92.57 264.35,-74.74"/>
<polygon fill="#63b8ff" stroke="#63b8ff" points="264.86,-78.21 273.94,-72.75 263.44,-71.35 264.86,-78.21"/>
</a>
</g>
<g id="a_edge4&#45;headlabel"><a xlink:href="dir_000480_000318.html" target="_top" xlink:title="2">
<text text-anchor="middle" x="263.4" y="-77.53" font-family="Helvetica,sans-Serif" font-size="10.00" fill="#63b8ff">2</text>
</a>
</g>
</g>
<!-- dir_4b4edfc69082ccc9fa978b057a42ad24&#45;&gt;dir_a0d37aaf829787e8da99f7ff6597b371 -->
<g id="edge9" class="edge">
<title>dir_4b4edfc69082ccc9fa978b057a42ad24&#45;&gt;dir_a0d37aaf829787e8da99f7ff6597b371</title>
<g id="a_edge9"><a xlink:href="dir_000480_000315.html" target="_top">
<path fill="none" stroke="#63b8ff" d="M58.21,-113.15C61.14,-112.15 64.2,-111.21 67.12,-110.5 181.31,-82.71 216.38,-97.38 335.15,-74.62"/>
<polygon fill="#63b8ff" stroke="#63b8ff" points="335.52,-78.12 344.65,-72.75 334.17,-71.25 335.52,-78.12"/>
</a>
</g>
<g id="a_edge9&#45;headlabel"><a xlink:href="dir_000480_000315.html" target="_top" xlink:title="2">
<text text-anchor="middle" x="334.03" y="-77.43" font-family="Helvetica,sans-Serif" font-size="10.00" fill="#63b8ff">2</text>
</a>
</g>
</g>
<!-- dir_4b4edfc69082ccc9fa978b057a42ad24&#45;&gt;dir_952a988346c879bc3b2834e2377036db -->
<g id="edge7" class="edge">
<title>dir_4b4edfc69082ccc9fa978b057a42ad24&#45;&gt;dir_952a988346c879bc3b2834e2377036db</title>
<g id="a_edge7"><a xlink:href="dir_000480_000514.html" target="_top">
<path fill="none" stroke="#63b8ff" d="M58.2,-113.09C61.12,-112.1 64.19,-111.18 67.12,-110.5 209.07,-77.83 252.91,-104.03 398.27,-74.71"/>
<polygon fill="#63b8ff" stroke="#63b8ff" points="398.81,-78.17 407.89,-72.71 397.39,-71.31 398.81,-78.17"/>
</a>
</g>
<g id="a_edge7&#45;headlabel"><a xlink:href="dir_000480_000514.html" target="_top" xlink:title="2">
<text text-anchor="middle" x="397.35" y="-77.5" font-family="Helvetica,sans-Serif" font-size="10.00" fill="#63b8ff">2</text>
</a>
</g>
</g>
<!-- dir_4b4edfc69082ccc9fa978b057a42ad24&#45;&gt;dir_d3b40e87d731c1e886b7a70e6daaf700 -->
<g id="edge11" class="edge">
<title>dir_4b4edfc69082ccc9fa978b057a42ad24&#45;&gt;dir_d3b40e87d731c1e886b7a70e6daaf700</title>
<g id="a_edge11"><a xlink:href="dir_000480_000532.html" target="_top">
<path fill="none" stroke="#63b8ff" d="M58.19,-113.06C61.11,-112.07 64.19,-111.15 67.12,-110.5 233.06,-73.63 282.51,-100.13 452.97,-74.8"/>
<polygon fill="#63b8ff" stroke="#63b8ff" points="453.26,-78.3 462.62,-73.33 452.2,-71.38 453.26,-78.3"/>
</a>
</g>
<g id="a_edge11&#45;headlabel"><a xlink:href="dir_000480_000532.html" target="_top" xlink:title="4">
<text text-anchor="middle" x="451.63" y="-77.55" font-family="Helvetica,sans-Serif" font-size="10.00" fill="#63b8ff">4</text>
</a>
</g>
</g>
<!-- dir_4b4edfc69082ccc9fa978b057a42ad24&#45;&gt;dir_60f7c75aab99249ed9879339d7562ada -->
<g id="edge5" class="edge">
<title>dir_4b4edfc69082ccc9fa978b057a42ad24&#45;&gt;dir_60f7c75aab99249ed9879339d7562ada</title>
<g id="a_edge5"><a xlink:href="dir_000480_000542.html" target="_top">
<path fill="none" stroke="#63b8ff" d="M58.18,-113.02C61.11,-112.03 64.18,-111.13 67.12,-110.5 267.53,-67.6 327.56,-109.12 532.42,-74.63"/>
<polygon fill="#63b8ff" stroke="#63b8ff" points="532.81,-78.11 542.06,-72.96 531.61,-71.21 532.81,-78.11"/>
</a>
</g>
<g id="a_edge5&#45;headlabel"><a xlink:href="dir_000480_000542.html" target="_top" xlink:title="2">
<text text-anchor="middle" x="531.24" y="-77.39" font-family="Helvetica,sans-Serif" font-size="10.00" fill="#63b8ff">2</text>
</a>
</g>
</g>
<!-- dir_4b4edfc69082ccc9fa978b057a42ad24&#45;&gt;dir_ba0bf5790b75dbb76cd621ad13634675 -->
<g id="edge10" class="edge">
<title>dir_4b4edfc69082ccc9fa978b057a42ad24&#45;&gt;dir_ba0bf5790b75dbb76cd621ad13634675</title>
<g id="a_edge10"><a xlink:href="dir_000480_000207.html" target="_top">
<path fill="none" stroke="#63b8ff" d="M47.91,-110.33C51.67,-103.44 57.03,-93.59 61.76,-84.91"/>
<polygon fill="#63b8ff" stroke="#63b8ff" points="64.8,-86.64 66.51,-76.19 58.65,-83.3 64.8,-86.64"/>
</a>
</g>
<g id="a_edge10&#45;headlabel"><a xlink:href="dir_000480_000207.html" target="_top" xlink:title="1">
<text text-anchor="middle" x="66.3" y="-85.96" font-family="Helvetica,sans-Serif" font-size="10.00" fill="#63b8ff">1</text>
</a>
</g>
</g>
<!-- dir_4b4edfc69082ccc9fa978b057a42ad24&#45;&gt;dir_9be0baa3d4a3e9f480a9ee70594037fa -->
<g id="edge8" class="edge">
<title>dir_4b4edfc69082ccc9fa978b057a42ad24&#45;&gt;dir_9be0baa3d4a3e9f480a9ee70594037fa</title>
<g id="a_edge8"><a xlink:href="dir_000480_000242.html" target="_top">
<path fill="none" stroke="#63b8ff" d="M41.32,-110.25C37.83,-93 30.04,-54.58 25.22,-30.81"/>
<polygon fill="#63b8ff" stroke="#63b8ff" points="28.67,-30.22 23.25,-21.11 21.81,-31.61 28.67,-30.22"/>
</a>
</g>
<g id="a_edge8&#45;headlabel"><a xlink:href="dir_000480_000242.html" target="_top" xlink:title="2">
<text text-anchor="middle" x="31.86" y="-27.82" font-family="Helvetica,sans-Serif" font-size="10.00" fill="#63b8ff">2</text>
</a>
</g>
</g>
</g>
</svg>
